<?xml version="1.0" encoding="utf-8"?>
<!-- Generator: Adobe Illustrator 22.1.0, SVG Export Plug-In . SVG Version: 6.00 Build 0)  -->
<svg version="1.1" id="Layer_1" xmlns="http://www.w3.org/2000/svg" xmlns:xlink="http://www.w3.org/1999/xlink" x="0px" y="0px"
	 viewBox="0 0 60 60" style="enable-background:new 0 0 60 60;" xml:space="preserve">
<style type="text/css">
	.st0{fill:#EE6D20;}
</style>
<path class="st0" d="M0,0.8v58.5h60V0.8H0z M2.5,3.3h55v53.5h-55V3.3z M20.8,33.9l-2,7.5c0,0.2-0.1,0.3-0.4,0.3h-3.7
	c-0.3,0-0.3-0.1-0.3-0.4l7.1-24.9c0.1-0.4,0.2-0.8,0.2-2.1c0-0.2,0.1-0.3,0.2-0.3h5.2c0.2,0,0.3,0,0.3,0.3l8,27c0,0.2,0,0.3-0.2,0.3
	h-4.1c-0.2,0-0.3,0-0.4-0.2l-2.1-7.5L20.8,33.9L20.8,33.9z M27.8,29.8c-0.7-2.8-2.3-8.8-3-11.8h0c-0.5,2.9-1.9,7.9-2.9,11.8H27.8z
	 M39,15.9c0-1.6,1.1-2.6,2.6-2.6c1.5,0,2.6,1,2.6,2.6c0,1.6-1.1,2.6-2.6,2.6C40,18.5,39,17.6,39,15.9L39,15.9z M39.3,21.6
	c0-0.2,0.1-0.3,0.3-0.3h3.9c0.2,0,0.3,0.1,0.3,0.3v19.7c0,0.2,0,0.3-0.3,0.3h-3.9c-0.3,0-0.3-0.1-0.3-0.3L39.3,21.6L39.3,21.6z"/>
</svg>
