<?xml version="1.0" encoding="utf-8"?>
<!-- Generator: Adobe Illustrator 22.1.0, SVG Export Plug-In . SVG Version: 6.00 Build 0)  -->
<svg version="1.1" id="Layer_1" xmlns="http://www.w3.org/2000/svg" xmlns:xlink="http://www.w3.org/1999/xlink" x="0px" y="0px"
	 viewBox="0 0 60 60" style="enable-background:new 0 0 60 60;" xml:space="preserve">
<style type="text/css">
	.st0{fill:#644092;}
</style>
<path class="st0" d="M50,0H10C4.5,0,0,4.5,0,10v40c0,5.5,4.5,10,10,10h40c5.5,0,10-4.5,10-10V10C60,4.5,55.5,0,50,0z M44.5,42.1
	c-0.5,1.2-1.3,2.3-2.3,3.1c-1,0.8-2.4,1.5-4,2c-1.6,0.5-3.6,0.8-5.8,0.8H16.3V13h17c3.1,0,5.7,0.7,7.5,2.2c1.9,1.4,2.8,3.6,2.8,6.5
	c0,1.8-0.4,3.3-1.3,4.5c-0.9,1.2-2.1,2.2-3.7,2.9v0.1c2.1,0.5,3.8,1.5,4.9,3c1.1,1.6,1.6,3.6,1.6,6C45.2,39.6,45,40.9,44.5,42.1
	L44.5,42.1L44.5,42.1z M37.6,33.5c-1-0.9-2.5-1.4-4.3-1.4H22.5V43h10.8c1.8,0,3.3-0.5,4.3-1.4c1-1,1.5-2.3,1.5-4.1
	C39.2,35.8,38.6,34.4,37.6,33.5L37.6,33.5L37.6,33.5z M36.1,26.5c1-0.8,1.5-2,1.5-3.6c0-1.8-0.4-3-1.3-3.7c-0.9-0.7-2.2-1.1-3.8-1.1
	h-10v9.7h10C33.9,27.7,35.1,27.3,36.1,26.5L36.1,26.5z"/>
</svg>
