<?xml version="1.0" encoding="utf-8"?>
<!-- Generator: Adobe Illustrator 22.1.0, SVG Export Plug-In . SVG Version: 6.00 Build 0)  -->
<svg version="1.1" id="Layer_1" xmlns="http://www.w3.org/2000/svg" xmlns:xlink="http://www.w3.org/1999/xlink" x="0px" y="0px"
	 viewBox="0 0 57.6 67.6" style="enable-background:new 0 0 57.6 67.6;" xml:space="preserve">
<style type="text/css">
	.st0{fill:#F15A22;}
	.st1{opacity:0.15;fill:url(#SVGID_1_);enable-background:new    ;}
	.st2{opacity:0.4;fill:url(#SVGID_2_);enable-background:new    ;}
	.st3{fill:#FFFFFF;}
</style>
<path class="st0" d="M57.4,21.6L55.3,16l1.4-3.2c0.2-0.4,0.1-0.9-0.2-1.2l-3.9-4C50.9,5.8,48.3,5.2,46,6l-1.1,0.4l-6-6.5L28.6-0.2
	h-0.1L18.3-0.1l-6,6.6l-1.1-0.4C8.9,5.2,6.3,5.8,4.6,7.6l-4,4.1c-0.3,0.3-0.3,0.7-0.2,1L1.9,16l-2.1,5.6l1.4,5.1L7.3,50
	c0.7,2.7,2.3,5,4.6,6.6c0,0,7.4,5.2,14.7,10c0.7,0.4,1.3,0.7,2,0.7c0.7,0,1.4-0.3,2-0.7c8.2-5.4,14.7-10,14.7-10
	c2.3-1.6,3.9-4,4.6-6.6l6.1-23.2L57.4,21.6z"/>
<linearGradient id="SVGID_1_" gradientUnits="userSpaceOnUse" x1="277" y1="-331.1204" x2="306.2275" y2="-331.1204" gradientTransform="matrix(1 0 0 -1 -277.2 -293.795)">
	<stop  offset="0" style="stop-color:#FFFFFF"/>
	<stop  offset="0.1413" style="stop-color:#FFFFFF;stop-opacity:0.9576"/>
	<stop  offset="1" style="stop-color:#FFFFFF;stop-opacity:0.7"/>
</linearGradient>
<path class="st1" d="M7.6,51l-7.8-28.8l2.3-5.6l-1.6-4.2l3.8-3.8C5.5,7.4,7.9,7,9,7.7l5.9,3.4l7.7,1.8l6-2.5L29,61.6
	c-0.1,7.4,0.4,6.6-5,3.1l-13.4-9C9.2,54.4,8.1,52.8,7.6,51z"/>
<linearGradient id="SVGID_2_" gradientUnits="userSpaceOnUse" x1="305.9125" y1="-330.4431" x2="334.6" y2="-330.4431" gradientTransform="matrix(1 0 0 -1 -277.2 -293.795)">
	<stop  offset="0" style="stop-color:#F1F1F2"/>
	<stop  offset="9.191439e-02" style="stop-color:#E4E5E6"/>
	<stop  offset="0.2357" style="stop-color:#D9DADB"/>
	<stop  offset="0.438" style="stop-color:#D2D4D5"/>
	<stop  offset="1" style="stop-color:#D0D2D3"/>
</linearGradient>
<path class="st2" d="M45.3,56.6l-11.4,7.8c-3.2,1.7-4.7,3.4-5,2.6c-0.2-0.7,0-2.6-0.1-5.5l-0.1-50.1c0-0.5,0.4-1.3,0.9-1.2l5.8,1.8
	l8.4-1.3l5.5-4.1C50,6,50.8,6,51.3,6.6l5,4.7c0.4,0.5,0.5,1.4,0.2,2l-1.4,2.5l2.3,5.9l-7.8,29.1C48.4,54.4,46.6,55.4,45.3,56.6z"/>
<path class="st3" d="M29.9,41.4c-0.3-0.1-0.6-0.2-0.7-0.2h-0.4h-0.4c-0.1,0-0.4,0.1-0.7,0.2L25,42.6c-0.3,0.1-0.7,0.3-1,0.5
	l-4.4,2.3c-0.3,0.1-0.3,0.4,0,0.6l3.9,2.7c0.2,0.2,0.6,0.5,0.9,0.7l1.7,1.5c0.2,0.2,0.6,0.5,0.8,0.7l1.7,1.5c0.2,0.2,0.6,0.2,0.8,0
	l1.7-1.5c0.2-0.2,0.6-0.5,0.8-0.7l1.7-1.5c0.2-0.2,0.6-0.5,0.9-0.7l3.9-2.8c0.2-0.2,0.2-0.4,0-0.6L33.9,43c-0.3-0.1-0.7-0.3-1-0.5
	L29.9,41.4z"/>
<path class="st3" d="M51.1,22.6c0.1-0.3,0.1-0.4,0.1-0.4c0-0.3,0-0.8-0.1-1.1l-0.2-0.7c-0.1-0.3-0.4-0.7-0.5-0.9l-2.5-3.8
	c-0.2-0.2-0.5-0.6-0.7-0.9l-3.3-4.1c-0.2-0.2-0.4-0.4-0.4-0.4h0c0,0-0.2,0-0.5,0.1l-5,1c-0.3,0.1-0.8,0.2-1.1,0.2l-0.1,0
	c-0.3,0-0.8,0-1.1-0.1l-4.2-1.4c-0.3-0.1-0.8-0.2-1-0.3c0,0-0.9-0.2-1.6-0.2c-0.7,0-1.6,0.2-1.6,0.2c-0.3,0.1-0.8,0.2-1,0.3
	l-4.2,1.4c-0.3,0.1-0.8,0.1-1.1,0.1l-0.1,0c-0.3,0-0.8-0.2-1.1-0.2l-5.1-0.9c-0.3-0.1-0.5-0.1-0.5-0.1h0c0,0-0.2,0.2-0.4,0.4
	L10.5,15c-0.2,0.2-0.5,0.6-0.7,0.9l-2.5,3.8c-0.2,0.2-0.4,0.7-0.5,0.9l-0.2,0.7c0,0.3-0.1,0.8-0.1,1.1c0,0,0,0.1,0.1,0.4
	c0.2,0.5,0.5,1,0.5,1c0.2,0.2,0.5,0.6,0.7,0.8l7.4,7.9c0.2,0.2,0.3,0.6,0.2,0.9L13.9,37c-0.1,0.3-0.1,0.7,0,1l0.4,1.1
	c0.4,1,1,1.8,1.8,2.5l1.5,1.2c0.2,0.2,0.6,0.2,0.9,0.1l4.8-2.3c0.3-0.1,0.7-0.4,0.9-0.6l3.4-3.1c0.5-0.4,0.5-1.2,0.1-1.7l-7.2-4.8
	c-0.2-0.2-0.3-0.5-0.2-0.8l3.1-5.9c0.1-0.3,0.2-0.7,0-1l-0.4-0.9c-0.1-0.3-0.5-0.6-0.7-0.7l-9.2-3.5c-0.3-0.1-0.3-0.2,0-0.2l6-0.6
	c0.3,0,0.8,0,1.1,0.1l5.3,1.5c0.3,0.1,0.5,0.4,0.4,0.7l-1.8,10.1c0,0.3,0,0.7,0,0.9c0.1,0.2,0.4,0.4,0.7,0.5l3.7,0.8
	c0.3,0.1,0.8,0.1,1.1,0l3.4-0.8c0.3-0.1,0.6-0.3,0.7-0.5c0.1-0.2,0.1-0.6,0-0.9l-1.8-10.1c0-0.3,0.1-0.6,0.4-0.7l5.3-1.5
	c0.3-0.1,0.8-0.1,1.1-0.1l6,0.6c0.3,0,0.3,0.1,0,0.2l-9.2,3.5c-0.3,0.1-0.6,0.4-0.7,0.7l-0.4,0.9c-0.1,0.3-0.1,0.7,0,1l3.2,5.9
	c0.1,0.3,0,0.6-0.2,0.8L30,35.4c-0.5,0.5-0.4,1.3,0.1,1.7l3.4,3.1c0.2,0.2,0.6,0.5,0.9,0.6l4.8,2.3c0.3,0.1,0.7,0.1,0.9-0.1l1.5-1.2
	c0.8-0.7,1.4-1.5,1.8-2.5l0.4-1.1c0.1-0.3,0.1-0.7,0-1l-1.6-3.7c-0.1-0.3,0-0.7,0.2-0.9l7.4-7.9c0.2-0.2,0.5-0.6,0.7-0.8
	C50.5,23.7,50.9,23.2,51.1,22.6z"/>
</svg>
