<?xml version="1.0" encoding="utf-8"?>
<!-- Generator: Adobe Illustrator 22.1.0, SVG Export Plug-In . SVG Version: 6.00 Build 0)  -->
<svg version="1.1" id="Layer_1" xmlns="http://www.w3.org/2000/svg" xmlns:xlink="http://www.w3.org/1999/xlink" x="0px" y="0px"
	 viewBox="0 0 56.3 84.4" style="enable-background:new 0 0 56.3 84.4;" xml:space="preserve">
<style type="text/css">
	.st0{clip-path:url(#SVGID_2_);}
	.st1{fill:#0ACF83;}
	.st2{fill:#A259FF;}
	.st3{fill:#F24E1E;}
	.st4{fill:#FF7262;}
	.st5{fill:#1ABCFE;}
</style>
<g>
	<defs>
		<rect id="SVGID_1_" x="0" y="0.2" width="56.3" height="84.4"/>
	</defs>
	<clipPath id="SVGID_2_">
		<use xlink:href="#SVGID_1_"  style="overflow:visible;"/>
	</clipPath>
	<g class="st0">
		<path class="st1" d="M14.1,84.6c7.8,0,14.1-6.3,14.1-14.1V56.4H14.1C6.3,56.4,0,62.7,0,70.5S6.3,84.6,14.1,84.6z"/>
		<path class="st2" d="M0,42.4c0-7.8,6.3-14.1,14.1-14.1h14.1v28.1H14.1C6.3,56.4,0,50.1,0,42.4z"/>
		<path class="st3" d="M0,14.3C0,6.5,6.3,0.2,14.1,0.2h14.1v28.1H14.1C6.3,28.3,0,22,0,14.3z"/>
		<path class="st4" d="M28.1,0.2h14.1c7.8,0,14.1,6.3,14.1,14.1c0,7.8-6.3,14.1-14.1,14.1H28.1V0.2z"/>
		<path class="st5" d="M56.3,42.4c0,7.8-6.3,14.1-14.1,14.1s-14.1-6.3-14.1-14.1s6.3-14.1,14.1-14.1S56.3,34.6,56.3,42.4z"/>
	</g>
</g>
</svg>
