<?xml version="1.0" encoding="utf-8"?>
<!-- Generator: Adobe Illustrator 22.1.0, SVG Export Plug-In . SVG Version: 6.00 Build 0)  -->
<svg version="1.1" id="Layer_1" xmlns="http://www.w3.org/2000/svg" xmlns:xlink="http://www.w3.org/1999/xlink" x="0px" y="0px"
	 viewBox="0 0 57.6 79" style="enable-background:new 0 0 57.6 79;" xml:space="preserve">
<style type="text/css">
	.st0{clip-path:url(#SVGID_2_);}
	.st1{fill:#EEAB37;}
	.st2{fill:#FFC24A;}
	.st3{fill:#FFA712;}
	.st4{fill:#F4BD62;}
	.st5{fill:#FFA50E;}
	.st6{fill:#F6820C;}
	.st7{fill:#FDE068;}
	.st8{fill:#FCCA3F;}
</style>
<g>
	<defs>
		<rect id="SVGID_1_" x="-0.2" y="0" width="57.6" height="79"/>
	</defs>
	<clipPath id="SVGID_2_">
		<use xlink:href="#SVGID_1_"  style="overflow:visible;"/>
	</clipPath>
	<g class="st0">
		<path class="st1" d="M31.1,77.8c-1.6,0.9-3.6,0.9-5.3,0L0,63.5l-0.2,0.2l26,14.5c1.6,0.9,3.6,0.9,5.3,0l26.2-14.6l-0.1-0.4
			L31.1,77.8z"/>
		<path class="st2" d="M-0.2,63.7L0.3,63l22.6-42.9l0-0.5L13,1c-0.8-1.6-3.2-1.2-3.5,0.6L-0.2,63.7z"/>
		<path class="st3" d="M0.1,63.2l0.4-0.7L22.8,20L12.9,1.3C12-0.3,9.9,0.1,9.7,1.8L0.1,63.2z"/>
		<g>
			<path d="M0.1,63.2l0.4-0.7L22.8,20L12.9,1.3C12-0.3,9.9,0.1,9.7,1.8L0.1,63.2z"/>
		</g>
		<path class="st4" d="M30.2,33.8l7.4-7.6l-7.4-14.2c-0.7-1.3-2.7-1.3-3.4,0l-4,7.6v0.6L30.2,33.8z"/>
		<path class="st5" d="M30,33.5l7.2-7.4L30,12.4c-0.7-1.3-2.3-1.4-3-0.1l-4,7.7l-0.1,0.4L30,33.5z"/>
		<g>
			<path d="M30,33.5l7.2-7.4L30,12.4c-0.7-1.3-2.3-1.4-3-0.1l-4,7.7l-0.1,0.4L30,33.5z"/>
		</g>
		<path class="st6" d="M-0.2,63.7L0,63.5l0.8-0.3l28.9-28.8l0.4-1l-7.2-13.7L-0.2,63.7z"/>
		<path class="st7" d="M31.1,78.2l26.2-14.6l-7.5-46c-0.2-1.4-2-2-3-1l-47,47.1l26,14.5C27.5,79.1,29.5,79.1,31.1,78.2z"/>
		<path class="st8" d="M57,63.5l-7.4-45.7c-0.2-1.4-1.7-2-2.7-1L0.1,63.6L25.8,78c1.6,0.9,3.6,0.9,5.3,0L57,63.5z"/>
	</g>
</g>
</svg>
