<?xml version="1.0" encoding="utf-8"?>
<!-- Generator: Adobe Illustrator 22.1.0, SVG Export Plug-In . SVG Version: 6.00 Build 0)  -->
<svg version="1.1" id="Layer_1" xmlns="http://www.w3.org/2000/svg" xmlns:xlink="http://www.w3.org/1999/xlink" x="0px" y="0px"
	 viewBox="0 0 60 60" style="enable-background:new 0 0 60 60;" xml:space="preserve">
<style type="text/css">
	.st0{clip-path:url(#SVGID_2_);}
</style>
<g>
	<defs>
		<rect id="SVGID_1_" width="60" height="60"/>
	</defs>
	<clipPath id="SVGID_2_">
		<use xlink:href="#SVGID_1_"  style="overflow:visible;"/>
	</clipPath>
	<g class="st0">
		<path d="M17.9,51.6c-2.3-1.8-4.7-3.5-6.4-6c-3.5-4.3-6.2-9.2-8-14.4C2.4,27.9,2,24.2,0.6,21C-1,18.6,0.8,16,3.4,15.3
			c1.2-0.2,3.2-1.3,0.7-0.5c-2.2,1.6-2.4-1.5-0.2-1.7c1.5-0.2,2.1-1.5,1.6-2.6c-1.6-1.1,4-2.3,1.2-3.9c-3-3.2,4.1-3.8,2.4-0.2
			c-0.4,2.8,5-0.5,3.7,2.7c1.3,1.5,4.8,0.4,4.7,2.5c1.9,0.1,2.5,1.7,4.2,1.8c1.8,0.8,5.1,1.5,5.7,3.5c-1.8,1.4-5.9-2.9-6.1,1
			c0.5,5.8,0.4,11.7,2.5,17.2c1,3.3,3.4,6,5.6,8.5c2.1,2.5,4.9,4.3,7.8,5.8c2.5,1.2,5.3,2,8,2.5c1.1-0.9,3.1-4,4.8-2.7
			c0.1,1.5-3.5,3.2-0.2,3c1.9-0.6,3.3,1.5,4.9-0.4c1.5,1.7,6.1-1.1,5.1,2.5c-1.4,0.9-3.5,0.4-4.9,1.6c-2.3-1.2-4.2,1-6.8,0.8
			c-2.9,0.5-5.8,0.7-8.7,0.7c-4.8-0.4-9.7-0.5-14.2-2.2C22.7,54.6,20.2,53.1,17.9,51.6L17.9,51.6z M22,53.4c2.5,1.1,4.9,2.2,7.7,2.6
			c4.3,0.6,8.8,1.5,13.2,0.7c-2-0.9-4,0.3-6-0.6c-2.4,0.5-4.9-0.1-7.3-0.4c-2.7-1.2-5.7-2-8.2-3.6c-3.2-1.2,1.6,1.5,2.5,1.7
			c2,1.1-2.2-0.6-2.8-1.1c-1.7-0.9-1.9-0.7-0.2,0.2C21.3,53,21.6,53.2,22,53.4L22,53.4z M17.2,50c2.4,0.9,0-1.7-1.1-1.6
			c-0.5-0.9-1.9-1.4-0.9-1.8c-1.8,0.6-1.8-2.3-2.7-1.9c-1.9-0.6-0.7-2.7-2.9-4c-0.2-1.3-2.2-2.5-2.8-4.6c-0.3-1-2.3-4-1-1.3
			c1,2.7,2.9,5,4.4,7.3c1.2,2.2,2.6,4.5,4.7,5.8C15.5,48.7,16.2,49.8,17.2,50z M10.2,42.4C10.3,42,10.7,43.1,10.2,42.4L10.2,42.4z
			 M20.1,51.1C20.6,50.9,19.3,50.8,20.1,51.1L20.1,51.1z M21.4,51.6C21.3,50.9,20.8,51.9,21.4,51.6L21.4,51.6z M23.1,52.3
			C23.9,51.5,21.9,51.8,23.1,52.3L23.1,52.3z M25.9,53.8C26.4,53.1,24.4,53.6,25.9,53.8L25.9,53.8z M20.5,50.1
			C21.7,49.3,18.9,50,20.5,50.1L20.5,50.1z M21.7,50.7C21.7,50.3,21.3,50.9,21.7,50.7L21.7,50.7z M27.9,54.5c1,0.6,5.8,1.4,2.8,0.3
			C30.2,54.9,25.1,53.3,27.9,54.5z M18.1,46.9C18,46.5,16.5,46.4,18.1,46.9L18.1,46.9z M21,48.6C21.7,48,19.4,48.2,21,48.6L21,48.6z
			 M23.4,50C24.4,49.6,21.6,49.6,23.4,50L23.4,50z M16.9,45.6c1.2,0.9,4.7,0.1,1.8-0.5c-1.3-0.7-4.3-1.2-2.3,0.4L16.9,45.6z
			 M25,50.6C25.5,49.7,23,50.1,25,50.6L25,50.6z M22.5,48.6c2.9,0.8-2.4-1.8-0.7-0.3l0.4,0.2L22.5,48.6L22.5,48.6z M27.5,51.5
			C30.2,51.5,25,51.1,27.5,51.5L27.5,51.5z M15.9,44.1C15.8,43.6,15.2,44.1,15.9,44.1L15.9,44.1z M32,54C32.1,53.1,31.2,54.7,32,54
			L32,54z M20.5,46.9C20.3,46.4,19.6,46.9,20.5,46.9L20.5,46.9z M16.1,43.7C17.7,43.7,14,43.1,16.1,43.7L16.1,43.7z M11,40.4
			C10.8,39.7,9.3,39.1,11,40.4L11,40.4z M24.5,49C24.2,48.7,24.4,49.1,24.5,49L24.5,49z M32.9,54.2C32.9,53.7,32.5,54.3,32.9,54.2
			L32.9,54.2z M23.8,48.2C23.9,47.6,22.4,48,23.8,48.2L23.8,48.2z M17.5,44.3C18.6,44.1,15.6,43.5,17.5,44.3L17.5,44.3z M28.1,50.8
			C29.9,50.1,26.3,50.5,28.1,50.8L28.1,50.8z M22.6,47.1c2.1,0.3-2.5-1.4-0.5-0.1L22.6,47.1z M29.8,51.5c1.9-1.2,1.3,2.7,3.3,0.3
			c2-1.4-1.7,1.8,0.7,0.3c1.7-1.2,4.3,0.5,5.9,1.1c1.2-0.1,2.3,1,3.5,0.4c2.3-0.6-4.5-0.9-2.7-2c-2.1,0.6-3.7-0.7-4.7-2.1
			c-2.4-0.5-5.1-1.8-6.3-3.9c-0.5-0.8,0.7,0.1-0.4-1.2c-1.4-1.3-2.1-2.7-3.1-4.3c-1.1-0.6-1.3-2.4-1.4-0.1c0-1.5-1.4-2.5-1.7-2.1
			c0-1.4,1.5-0.7,0.4-1.8c-0.2-1.5-1-3-1.2-4.7c-0.3-0.8-0.1-2.5-1.2-0.7c-0.4,1.9-0.1-2.4,0.5-0.9c0.8-1.4-0.3-1.3-0.4-1.1
			c0.5-1.2,0.4-2.9-0.1-2.3c0.3-1.3,0.5-4.8-0.4-4.1c0.5-1.4,1-6.2-1.3-4.3c-1,0-2.6,0.4-3.4,0.7c2.5,1.4-0.2,0.5-1.3,0.3
			c-0.1,1.3-1.1,0.7-2.4,0.7c2,0.2-1,2-2.1,1.3c-1.5,0.7,1.3,2.5,0,3c0.2,0.8-2.3-0.3-2.1,1.6c-1.4-0.6-0.2,2.3,0.5,1.3
			c2.4,0.7,1.7,2.2,1.8,3.6c-0.4,0.8-2-2-0.3-1.8c-1.3-2.1-1.4-0.7-2.5,0.2c-0.2,0.1,2.7,1.4,0.8,2c1.6,0.3,1.7,1.7,2,2.6
			c1,1,0.8-1.1,1.9,0.1c-0.7-1.1-3.9-3.1-1.4-2.4c0-1.1-0.5-2,0.3-2c0.8-1.4-0.8,3.5,0.9,1.7c0.5-0.2,0.6-1.4,1.5,0.1
			c1.3,1.2,0.5,2.1-1.3,1c0.3,1.1,2.4,1.5,2,3.2c0.4,1.5,1,0.9,1.5,0.9c0.4,1.4,0.6,0.4,0.6-0.3c1.8,0.4,1.4,1.5,1.9,2.2
			c1.2,0.6-1.8-3.8,0.4-1.3c2.2,2,0.8,2.9-1.2,2.5c1.3-0.1,1.7,1.7,3.3,1.7c1.5,0.7,2.4,3.3-0.1,2.2c-0.9-0.8-3.9-1.8-1.4-0.3
			c2.3,1.1,4.2,1.7,6.4,3.1c1.6,1.1,2.3,2.5,2.9,2.7c-1.3,0.6-4.1-0.5-2-0.9c-1.3-0.2-2.7-0.9-1.5,0.7c1,0.9,3.6,0.8,4.1,0.9
			c-0.4,0.9-1.1,0.9,0,1C28,51.1,29.7,51.2,29.8,51.5L29.8,51.5z M27.3,44.5c-0.7-0.8-0.9-2.2-0.1-1C27.6,43.7,28.5,45.9,27.3,44.5z
			 M35.4,49.6C35.8,49.6,35.4,50,35.4,49.6L35.4,49.6z M26.1,42.6C26.1,41.4,26.4,43.5,26.1,42.6L26.1,42.6z M25.3,41.5
			C24.4,39.7,26.5,42,25.3,41.5L25.3,41.5z M15.6,34.8C16.1,34.6,15.8,35.7,15.6,34.8L15.6,34.8z M23.3,39
			C23.6,37.7,23.7,40.1,23.3,39L23.3,39z M17.8,35.2C17.4,34.5,18.6,35.8,17.8,35.2L17.8,35.2z M22.5,36.7c-0.9-2,0.6-1.1,0.2,0.3
			L22.5,36.7z M14.4,31.3c-0.4-0.7-1-2.6-0.8-3.1c0.2,0.9,2,4.1,0.9,1.3c-1.2-2.3,1.5,0.8,1.8,1.3c0.1,0.6-0.8-0.2-0.2,1.2
			C15,30.4,15.4,32.8,14.4,31.3z M11.9,29.6C12,28,12.5,30.6,11.9,29.6L11.9,29.6z M13,29.9C13.6,28.8,14,31.5,13,29.9L13,29.9z
			 M10.3,27.8c-0.9-0.9-1.6-1.8,0-0.6c0.6,0-1.4-1.9,0.2-0.6C12.2,26.9,11.3,29.3,10.3,27.8z M11.8,27.8
			C12.3,27.3,12,28.3,11.8,27.8L11.8,27.8z M12.6,28.1C11.8,26.5,13.6,28.7,12.6,28.1L12.6,28.1z M10.9,26.4
			c-2.7-2.4,3.4,1.3,0.4,0.5L10.9,26.4z M18.7,30.9c-1.2-0.7-0.3-5,0.1-2c1.1-0.4-0.1,1.5,0.8,1.5C19.4,31.6,19,32,18.7,30.9
			L18.7,30.9z M21.5,32.6C21.7,31.4,21.8,33.5,21.5,32.6L21.5,32.6z M21,32.1C21.2,31.6,21.1,32.8,21,32.1L21,32.1z M11.4,25.6
			c-1.7-2.4,5.1,2.4,1.1,0.6C12.1,26.1,11.6,26.1,11.4,25.6z M17,28.6C16.8,26.5,17.3,28.9,17,28.6L17,28.6z M21.2,31.3
			C21.5,30.1,21.2,32,21.2,31.3L21.2,31.3z M11.7,24.7c1-0.2,4.3,1.8,1.3,0.6C12.7,24.9,11.9,25.1,11.7,24.7z M20.6,29.1
			c0.1-2.1,0.6-1.2,0,0.3L20.6,29.1z M12.5,24c0.4-0.6-1.1-2.8,0.2-0.8c0.6,0.5,1.7,0.8,0.7,1C14.9,25.5,13,24.5,12.5,24L12.5,24z
			 M20.1,28.5C20.4,26.1,20.4,29.9,20.1,28.5L20.1,28.5z M11.6,21.8C11.9,21.7,11.7,22.2,11.6,21.8L11.6,21.8z M13.6,23
			C14.1,21.9,14.5,24.2,13.6,23L13.6,23z M19.2,26.1C19.2,25.7,19.3,26.8,19.2,26.1L19.2,26.1z M18.9,25.4
			C18.1,23.5,19.6,26.4,18.9,25.4L18.9,25.4z M18.4,24.1C18.3,23.4,18.9,25.2,18.4,24.1L18.4,24.1z M19.2,22.9
			c-0.5-1,0.7-4.2,0.8-2.2c-0.6,1.6-0.2,2.4,0.2,0.3C21,19.4,20.1,24.3,19.2,22.9L19.2,22.9z M20,18.1C20.3,17.8,20.1,18.4,20,18.1
			L20,18.1z M18.7,44.6C18.4,44.3,18.7,44.8,18.7,44.6L18.7,44.6z M21.4,46c1.5,0.4,1.5-0.2,0.1-0.4c-0.8-0.7-3.1-1.4-1-0.1
			C20.7,45.8,21.2,45.8,21.4,46L21.4,46z M16,42.4c0.9,0.6,3.2,1.8,1.2,0.2c0.7-0.8-1.3-1.2-0.6-1.7c-1.7-1-1.3-0.9-0.1-0.9
			c-2-0.9,0.3-0.8,0.2-1.3c-0.8-0.2-3.8-1.3-2,0.1c-1.8-0.9-0.4,0.3-1,0.2c-1.9-0.5,1.6,1.4-0.3,0.9c1.1,0.8,2.9,2.2,0.4,0.9
			C13.4,41.3,15.5,42,16,42.4z M18.9,44C22.4,45.2,17.1,42.6,18.9,44L18.9,44z M33.7,53C33.8,52.3,33.2,53.6,33.7,53L33.7,53z
			 M35.2,53.7c0.8-0.8,0,1.3,1.3-0.2c0-1,0-1.6-1.5-0.4C34.7,53.3,34.5,54.3,35.2,53.7z M11,38.5C10.8,37.5,9.3,37.5,11,38.5
			L11,38.5z M12.6,39.5C12,38.5,10.5,38.6,12.6,39.5L12.6,39.5z M21.9,45.1c0.9,0.8,4.2,0.6,1.1,0.1C22.6,44.5,20.1,44.7,21.9,45.1z
			 M34.7,53C36.1,51.8,33.3,53.5,34.7,53L34.7,53z M37.6,55C37.6,54.6,37,55.1,37.6,55L37.6,55z M37.6,54.5
			C39.1,52.8,36.1,54.5,37.6,54.5L37.6,54.5z M7,35.1c-1.3-1.9-0.8-2.7-2.1-4.3c-0.2-1.2-2.2-3.8-1-1C5,31.5,5.3,34,7,35.1L7,35.1z
			 M37.1,53.9C39.9,52.1,35.9,53.1,37.1,53.9L37.1,53.9z M39.3,54.8C40.7,53.6,38.4,54.5,39.3,54.8L39.3,54.8z M10.5,36.4
			C10.9,35.8,9.5,36.3,10.5,36.4L10.5,36.4z M38.8,54.2c1.4-0.9-0.3-0.8-0.3,0.1L38.8,54.2z M20.1,42.4
			C20.1,41.8,19.4,42.5,20.1,42.4L20.1,42.4z M21.3,43.1C20.9,42.3,20.7,43.2,21.3,43.1L21.3,43.1z M41,54.8
			c1.8-1.3-1.1-0.2-0.4,0.2L41,54.8z M40.3,54.5C41.8,53.3,38.8,55,40.3,54.5L40.3,54.5z M43.8,56.8C44.7,56.1,42.6,56.6,43.8,56.8
			L43.8,56.8z M11.4,35.9c1.3,0.3,5.2,3.2,2.9,0.2c-1.2-0.3-0.5-3.2-1.7-2.7c0.8,1.3,0.7,1.9-1,1.1c-2.1-1-1.2,0.5-0.8,0.9
			C10.3,35.6,11.6,35.9,11.4,35.9L11.4,35.9z M5.5,31.3c0.2-1-2.1-5.3-1.1-2.2C4.8,29.8,4.7,31,5.5,31.3z M16.3,38
			C15.7,37.4,16.3,37.9,16.3,38L16.3,38z M18,38.3C18,37.3,16.2,37.9,18,38.3L18,38.3z M32.2,47.3C31.9,46.6,31.1,47.3,32.2,47.3
			L32.2,47.3z M32.9,47.8C32.8,47.4,32.5,47.9,32.9,47.8L32.9,47.8z M38.5,51.3C39,50.9,37.8,51.3,38.5,51.3L38.5,51.3z M8.5,32
			C10,31.4,6.8,31.6,8.5,32L8.5,32z M30.9,46.2C30.9,45.2,29.9,46.4,30.9,46.2L30.9,46.2z M7.9,30.6C8.9,30.3,6.9,30.4,7.9,30.6
			L7.9,30.6z M10.7,32C10.7,31.7,10.4,32.1,10.7,32L10.7,32z M46,53.6c1.3-0.3,4.2,0.6,4.7-0.3c-1.6,0-5.4-1.1-5.6,0.3l0.3,0.1
			L46,53.6L46,53.6z M11.7,32.2C11.7,31.2,10.9,32.2,11.7,32.2L11.7,32.2z M4.1,27C3.7,25,2.8,26.7,4.1,27L4.1,27z M5.9,27.4
			C5.9,26.8,4.2,26.9,5.9,27.4L5.9,27.4z M6.9,27.9C6.6,27.7,6.7,28.2,6.9,27.9L6.9,27.9z M13.4,32.1C13.7,31.8,12.7,31.9,13.4,32.1
			L13.4,32.1z M6.2,26.8C6.1,25.3,4.1,26.6,6.2,26.8L6.2,26.8z M2.5,24.4C2.5,23.7,2.2,24.6,2.5,24.4L2.5,24.4z M3.1,24
			C3,23.2,2.6,24.1,3.1,24L3.1,24z M6.1,25.8c1.3-0.5-2.4-1.1-0.3-0.1L6.1,25.8z M47,51C47.8,50.3,45.9,50.8,47,51L47,51z
			 M51.9,53.6C52.2,52.6,51.1,53.7,51.9,53.6L51.9,53.6z M6.4,24.2C6.6,23.2,5.4,24.4,6.4,24.2L6.4,24.2z M2.1,21.3
			c-0.2-1.3-0.2-3.7,2-2.9c-3,0.6,2.1,3.7,1.4,1.2c1.3,0.1,2.5-0.7,1.8,0.5c2.5-0.3,4.2-2.4,6.6-2.1c1.9-0.2,3.9-0.4,5.9-1.2
			c1.6-0.1,3.2-1.9,2.3-2.9c-2.2-0.2-4.6,0.1-7.1,0.6c-2.7,0.6-5.2,1.7-8,2.1c-2.7,0.4,0.5,1-0.2,1.1c-1.4,0.5,1.7,0.8-0.2,1.3
			c-1.2-0.2-2.3-0.6-1.9-1.8c-2.6,0.3-4.9,1.4-2.8,4L2.1,21.3L2.1,21.3z M8.3,18.1c0.6-2.2,3.2,1.8,1,0.3C9,18.2,8.6,18,8.3,18.1
			L8.3,18.1z M8.4,17C9.3,16.4,8.9,17.4,8.4,17L8.4,17z M9.6,17c0.1-1,2.5,0.5,0.4,0.4L9.6,17z M11.1,16.4
			C11.6,15.8,11.2,17,11.1,16.4L11.1,16.4z M11.5,16.2c0.9-1.1,5.2-0.7,2.1-0.1C12.7,15.4,12,16.4,11.5,16.2z M17.1,15.3
			C17,12.3,19.9,16.4,17.1,15.3L17.1,15.3z M18.7,15.3c0.6-1.5,2.3-0.6,0.3-0.3C19,15.1,18.9,15.8,18.7,15.3z M5.8,23.4
			C7.5,22.3,3.9,22.5,5.8,23.4L5.8,23.4z M7.1,23.8C7.7,23.1,5.8,23.5,7.1,23.8L7.1,23.8z M3.3,21.1C4.3,20.3,2.1,20.8,3.3,21.1
			L3.3,21.1z M54.8,53.3C54.8,52.4,54,53.7,54.8,53.3L54.8,53.3z M49.6,49.7C49.7,48.7,48.9,49.8,49.6,49.7L49.6,49.7z M56.2,53.6
			c1.4,0,4.2-0.4,1.2-0.4C57,53.3,54.7,53.3,56.2,53.6L56.2,53.6z M8.2,23.1C9.3,23.1,10,21.9,8,22c-3.1-0.3,2.7,1.1-0.4,0.7
			C7.2,22.9,8.2,23.2,8.2,23.1L8.2,23.1z M9.2,23.6C9.1,22.9,8.9,24,9.2,23.6L9.2,23.6z M10.4,20.5C10.9,19.9,9.7,20.3,10.4,20.5
			L10.4,20.5z M6.6,14.2c2-0.7,4.8-1.5,5.7,0.3c-1-1.2-0.4-2.3,0.5-0.6c1.3,1.7,1.9-0.8,1.1-1.4c1,1.2,2,1.8,0.6,0.1
			c1.5-1.8-3.1,0.2-4.1,0.2C10,13.1,5.3,14.1,6.6,14.2L6.6,14.2z M7.8,12c1.2-0.9,4,0.5,2.2-0.9C9.8,11,6,12.2,7.8,12z M12,12.1
			c1.3,0-0.6-1.8,1-1c-0.3-0.9-1.9-1-2.6-1.4C9.9,10.6,11.3,12.2,12,12.1z M8.6,8.3C9,7.7,7.7,8.7,8.6,8.3L8.6,8.3z M10.3,8.8
			c2.2-0.3-0.5-0.9-0.4,0L10.3,8.8z M7.1,6.3c-1.5-2,2.9,0.3,1.3-1.8C7.1,3.5,5.8,5.7,7.1,6.3z M26.6,16.8c0.7-1.2-2.9-1.7-0.5-0.4
			C26.4,16.4,26.3,16.9,26.6,16.8z"/>
	</g>
</g>
</svg>
