<?xml version="1.0" encoding="utf-8"?>
<!-- Generator: Adobe Illustrator 22.1.0, SVG Export Plug-In . SVG Version: 6.00 Build 0)  -->
<svg version="1.1" id="Layer_1" xmlns="http://www.w3.org/2000/svg" xmlns:xlink="http://www.w3.org/1999/xlink" x="0px" y="0px"
	 viewBox="0 0 64 56.8" style="enable-background:new 0 0 64 56.8;" xml:space="preserve">
<style type="text/css">
	.st0{clip-path:url(#SVGID_2_);}
	.st1{fill:#CAC9C2;}
	.st2{fill:#FFFFFF;}
	.st3{fill:#5072AA;}
	.st4{fill:#4D6796;}
	.st5{fill:#CC4232;}
	.st6{fill:#B23F33;}
	.st7{fill:#ECB02A;}
	.st8{fill:#C79732;}
</style>
<g>
	<defs>
		<rect id="SVGID_1_" width="64" height="56.8"/>
	</defs>
	<clipPath id="SVGID_2_">
		<use xlink:href="#SVGID_1_"  style="overflow:visible;"/>
	</clipPath>
	<g class="st0">
		<path class="st1" d="M20.4,47.6L9.2,28.2L20.4,8.7h22.5l11.2,19.5L42.9,47.6H20.4z"/>
		<path class="st2" d="M32,37c-4.8,0-8.8-3.9-8.8-8.8c0-4.8,3.9-8.8,8.8-8.8c4.8,0,8.8,3.9,8.8,8.8C40.8,33.1,36.8,37,32,37z"/>
		<path class="st3" d="M49.6,2.2C48.9,1,47.2,0,45.9,0H18.2c-1.4,0-3.1,1-3.8,2.2l-8.1,14c-0.1,0.9,0.1,1.9,0.5,2.5l5.5,9.4
			l9.8-16.9H53c0.7,0,1.5,0.3,2.3,0.7L49.6,2.2z"/>
		<path class="st4" d="M6.7,15.6l-0.4,0.6c-0.1,0.9,0.1,1.9,0.5,2.5l5.5,9.4l2.9-5L6.7,15.6z"/>
		<path class="st2" d="M18.9,7.2c-0.9,0-1.7-0.8-1.7-1.7c0-0.9,0.8-1.7,1.7-1.7c0.9,0,1.7,0.8,1.7,1.7C20.6,6.5,19.8,7.2,18.9,7.2z"
			/>
		<path class="st2" d="M46.6,5.5c0,0.9-0.7,1.6-1.6,1.6c-0.9,0-1.6-0.7-1.6-1.6S44.1,4,45,4C45.9,4,46.6,4.7,46.6,5.5z"/>
		<path class="st5" d="M63.5,26.2l-8.2-14.2c-0.7-0.4-1.5-0.7-2.3-0.7H41.8l9.6,17L36.2,55.1c-0.3,0.6-0.9,1.1-1.6,1.5h11.2
			c1.4,0,3.1-1,3.8-2.2l13.8-24C64.1,29.3,64.1,27.3,63.5,26.2z"/>
		<path class="st6" d="M55.6,12.6l-0.4-0.6c-0.7-0.4-1.5-0.7-2.3-0.7H41.8l2.9,5.1L55.6,12.6z"/>
		<path class="st2" d="M45,52.5c-0.9,0-1.7-0.8-1.7-1.7c0-0.9,0.8-1.7,1.7-1.7c0.9,0,1.7,0.8,1.7,1.7C46.7,51.7,45.9,52.5,45,52.5z"
			/>
		<path class="st2" d="M58.2,30c-0.9,0-1.7-0.8-1.7-1.7c0-0.9,0.8-1.7,1.7-1.7c0.9,0,1.7,0.8,1.7,1.7C59.8,29.2,59.1,30,58.2,30z"/>
		<path class="st7" d="M22.3,45.2L6.8,18.7c-0.4-0.7-0.6-1.6-0.5-2.5l-5.8,10c-0.7,1.2-0.7,3.1,0,4.3l13.8,24
			c0.7,1.2,2.4,2.2,3.8,2.2h16.5c0.7-0.4,1.2-0.9,1.6-1.5l5.6-10H22.3z"/>
		<path class="st8" d="M33.7,56.6h1c0.7-0.4,1.2-0.9,1.6-1.5l5.6-10h-6L33.7,56.6z"/>
		<path class="st2" d="M18.9,52.5c-0.9,0-1.7-0.8-1.7-1.7c0-0.9,0.8-1.7,1.7-1.7c0.9,0,1.7,0.8,1.7,1.7
			C20.6,51.7,19.8,52.5,18.9,52.5z"/>
		<path class="st2" d="M5.7,30C4.8,30,4,29.2,4,28.3c0-0.9,0.8-1.7,1.7-1.7c0.9,0,1.7,0.8,1.7,1.7C7.4,29.2,6.6,30,5.7,30z"/>
	</g>
</g>
</svg>
