<?xml version="1.0" encoding="utf-8"?>
<!-- Generator: Adobe Illustrator 22.1.0, SVG Export Plug-In . SVG Version: 6.00 Build 0)  -->
<svg version="1.1" id="Layer_1" xmlns="http://www.w3.org/2000/svg" xmlns:xlink="http://www.w3.org/1999/xlink" x="0px" y="0px"
	 viewBox="0 0 60 60" style="enable-background:new 0 0 60 60;" xml:space="preserve">
<style type="text/css">
	.st0{clip-path:url(#SVGID_2_);}
	.st1{fill:#F05033;}
</style>
<g>
	<defs>
		<rect id="SVGID_1_" width="60" height="60"/>
	</defs>
	<clipPath id="SVGID_2_">
		<use xlink:href="#SVGID_1_"  style="overflow:visible;"/>
	</clipPath>
	<g class="st0">
		<path class="st1" d="M58.9,27.3L32.7,1.1c-1.5-1.5-4-1.5-5.5,0l-5.4,5.4l6.9,6.9c1.6-0.5,3.4-0.2,4.7,1.1c1.3,1.3,1.6,3.1,1.1,4.8
			l6.6,6.6c1.6-0.6,3.5-0.2,4.8,1.1c1.8,1.8,1.8,4.7,0,6.5c-1.8,1.8-4.7,1.8-6.5,0c-1.3-1.4-1.7-3.3-1-5l-6.2-6.2v16.3
			c0.4,0.2,0.9,0.5,1.2,0.9c1.8,1.8,1.8,4.7,0,6.5c-1.8,1.8-4.7,1.8-6.5,0c-1.8-1.8-1.8-4.7,0-6.5c0.5-0.5,1-0.8,1.5-1V22.1
			c-0.5-0.2-1.1-0.6-1.5-1c-1.4-1.4-1.7-3.4-1-5l-6.8-6.8l-18,18c-1.5,1.5-1.5,4,0,5.5l26.2,26.2c1.5,1.5,4,1.5,5.5,0l26.1-26.1
			C60.4,31.3,60.4,28.8,58.9,27.3"/>
	</g>
</g>
</svg>
