<?xml version="1.0" encoding="utf-8"?>
<!-- Generator: Adobe Illustrator 22.1.0, SVG Export Plug-In . SVG Version: 6.00 Build 0)  -->
<svg version="1.1" id="Layer_1" xmlns="http://www.w3.org/2000/svg" xmlns:xlink="http://www.w3.org/1999/xlink" x="0px" y="0px"
	 viewBox="0 0 60 60" style="enable-background:new 0 0 60 60;" xml:space="preserve">
<style type="text/css">
	.st0{fill:#5F14AC;}
</style>
<path class="st0" d="M51.5,0H8.5c-3,0-5.4,2.4-5.4,5.4v49.2c0,3,2.4,5.4,5.4,5.4h43.1c3,0,5.4-2.4,5.4-5.4V5.4
	C56.9,2.4,54.5,0,51.5,0z M53.9,54.6c0,1.3-1.1,2.4-2.4,2.4H8.5c-1.4,0-2.4-1.1-2.4-2.4V5.4C6.1,4.1,7.1,3,8.5,3h43.1
	c1.3,0,2.4,1.1,2.4,2.4V54.6z M16.6,51l6.8-6l-6.8-6V51z M40.9,26.7c-1.2-1.2-3.4-2.7-7.2-2.7c-4.1,0-8.3,1.1-11.3,2.1V9h-6v26
	l4.2-2c0,0,6.9-3.1,12.9-3.1c3,0,3.8,1.6,3.8,3.1v18h6V33C43.4,32.6,43.4,29.2,40.9,26.7L40.9,26.7z M32.9,18.8h6
	c2.7-3.1,4-6.3,4.5-9.8h-6C36.8,12.4,35.3,15.6,32.9,18.8z"/>
</svg>
