<?xml version="1.0" encoding="utf-8"?>
<!-- Generator: Adobe Illustrator 22.1.0, SVG Export Plug-In . SVG Version: 6.00 Build 0)  -->
<svg version="1.1" id="Layer_1" xmlns="http://www.w3.org/2000/svg" xmlns:xlink="http://www.w3.org/1999/xlink" x="0px" y="0px"
	 viewBox="0 0 60 60" style="enable-background:new 0 0 60 60;" xml:space="preserve">
<style type="text/css">
	.st0{fill:#0868AB;}
</style>
<path class="st0" d="M3.8,14.7c-5.3,7.6-4.6,17.5-0.6,25.6c0.1,0.2,0.2,0.4,0.3,0.6c0.1,0.1,0.1,0.3,0.2,0.4c0,0.1,0.1,0.1,0.1,0.2
	c0.1,0.1,0.1,0.3,0.2,0.4l0.4,0.7c0.1,0.1,0.1,0.2,0.2,0.4c0.1,0.2,0.3,0.5,0.4,0.7c0.1,0.1,0.1,0.2,0.2,0.3
	c0.2,0.4,0.5,0.8,0.8,1.1c0.2,0.3,0.4,0.5,0.6,0.8c0.1,0.1,0.1,0.2,0.2,0.3l0.6,0.7c0.1,0.1,0.1,0.2,0.2,0.2
	c0.2,0.3,0.5,0.6,0.8,0.9c0,0,0,0,0,0c0.3,0.4,0.7,0.8,1.1,1.1c0.2,0.2,0.4,0.4,0.6,0.6l0.3,0.2c0.3,0.3,0.6,0.5,0.8,0.8
	c0,0,0,0,0,0l0.1,0.1c0.3,0.2,0.5,0.4,0.8,0.6l0.3,0.3c0.2,0.2,0.4,0.3,0.6,0.5l0.3,0.3c0.2,0.2,0.5,0.3,0.7,0.5
	c0.1,0.1,0.2,0.1,0.3,0.2l0.1,0.1l0.7,0.5l0.3,0.2c0.4,0.2,0.7,0.5,1.1,0.7c0.1,0.1,0.2,0.1,0.3,0.2c0.3,0.2,0.6,0.3,0.8,0.5
	c0.2,0.1,0.3,0.2,0.5,0.2c0.2,0.1,0.4,0.2,0.6,0.3c0,0,0.1,0,0.1,0.1c0.1,0,0.2,0.1,0.2,0.1c0.3,0.2,0.6,0.3,0.9,0.4
	c0.1,0,0.1,0,0.2,0.1c0.4,0.2,0.7,0.3,1.1,0.5c0.1,0,0.2,0.1,0.3,0.1c0.3,0.1,0.7,0.3,1,0.4l0.1,0c0.4,0.1,0.8,0.3,1.1,0.4
	c0.1,0,0.2,0.1,0.3,0.1c0.4,0.1,0.8,0.3,1.2,0.3C51,62.8,58.5,42.7,58.5,42.7c-6.3,8.2-17.4,10.3-27.9,7.9c-0.4-0.1-0.8-0.2-1.2-0.3
	C29,50.2,28.5,50,28,49.9l-0.2-0.1c-0.3-0.1-0.7-0.2-1-0.4c-0.1,0-0.2-0.1-0.3-0.1c-0.4-0.1-0.7-0.3-1.1-0.5c-0.1,0-0.1-0.1-0.2-0.1
	c-0.3-0.1-0.6-0.3-0.9-0.4c-0.1,0-0.2-0.1-0.3-0.1c-0.2-0.1-0.5-0.2-0.7-0.4c-0.2-0.1-0.3-0.2-0.5-0.2c-0.3-0.2-0.6-0.3-0.8-0.5
	c-0.1-0.1-0.2-0.1-0.3-0.2c-0.4-0.2-0.7-0.4-1.1-0.7c-0.1-0.1-0.2-0.1-0.3-0.2c-0.3-0.2-0.5-0.3-0.8-0.5c-0.1-0.1-0.2-0.1-0.3-0.2
	c-0.2-0.2-0.5-0.3-0.7-0.5c-0.1-0.1-0.2-0.2-0.3-0.3c-0.2-0.2-0.4-0.3-0.7-0.5l-0.3-0.2c-0.3-0.2-0.6-0.5-0.8-0.7
	c0,0-0.1-0.1-0.1-0.1l-0.9-0.8l-0.3-0.2c-0.2-0.2-0.4-0.4-0.6-0.6l-0.2-0.3c-0.3-0.3-0.5-0.5-0.8-0.8l0,0c-0.3-0.3-0.5-0.6-0.8-0.9
	c-0.1-0.1-0.1-0.2-0.2-0.2l-0.6-0.7c-0.3-0.4-0.6-0.7-0.8-1.1c-5.8-8-7.9-19-3.3-28"/>
<path class="st0" d="M20.3,8.3c-3.8,5.5-3.6,12.9-0.6,18.7c0.5,1,1.1,1.9,1.7,2.8c0.6,0.8,1.2,1.8,2,2.5c0.3,0.3,0.6,0.6,0.9,0.9
	l0.2,0.2c0.3,0.3,0.6,0.5,0.9,0.8l0,0c0.3,0.3,0.7,0.6,1,0.9c0.1,0.1,0.2,0.1,0.2,0.2c0.4,0.3,0.7,0.5,1.1,0.8l0,0
	c0.2,0.1,0.3,0.2,0.5,0.3c0.1,0,0.1,0.1,0.2,0.2c0.3,0.2,0.5,0.3,0.8,0.5c0,0,0.1,0,0.1,0.1c0.2,0.1,0.5,0.3,0.7,0.4
	c0.1,0.1,0.2,0.1,0.2,0.1c0.2,0.1,0.3,0.2,0.5,0.3l0.1,0c0.3,0.2,0.7,0.3,1,0.5c0.1,0,0.2,0.1,0.2,0.1c0.3,0.1,0.6,0.2,0.8,0.3
	c0.1,0,0.2,0.1,0.4,0.1c0.3,0.1,0.5,0.2,0.8,0.3l0.3,0.1c0.4,0.1,0.7,0.3,1.1,0.3C55.4,43,60,27.8,60,27.8
	c-4.1,5.9-12.1,8.8-20.6,6.6c-0.4-0.1-0.7-0.2-1.1-0.3c-0.1,0-0.2-0.1-0.3-0.1c-0.3-0.1-0.5-0.2-0.8-0.3l-0.4-0.1
	c-0.3-0.1-0.6-0.2-0.8-0.3c-0.1,0-0.2-0.1-0.2-0.1c-0.3-0.2-0.7-0.3-1-0.5l-0.5-0.3l-0.3-0.1c-0.2-0.1-0.4-0.2-0.7-0.4
	c-0.1,0-0.1-0.1-0.2-0.1c-0.3-0.2-0.5-0.3-0.8-0.5c-0.1,0-0.2-0.1-0.2-0.2l-0.5-0.3c-0.4-0.3-0.7-0.5-1.1-0.8
	c-0.1-0.1-0.2-0.1-0.2-0.2c-3.7-2.9-6.7-7-8.1-11.5c-1.5-4.7-1.1-10,1.4-14.4"/>
<path class="st0" d="M34.2,3.5c-2.3,3.3-2.5,7.5-0.9,11.1c1.7,3.9,5.1,7,9,8.4c0.2,0.1,0.3,0.1,0.5,0.2l0.2,0.1
	c0.2,0.1,0.5,0.2,0.7,0.2c10.9,2.1,13.9-5.6,14.7-6.8c-2.6,3.7-7,4.6-12.3,3.3c-0.4-0.1-0.9-0.2-1.3-0.4c-0.5-0.2-1-0.4-1.5-0.6
	c-1-0.5-1.9-1-2.7-1.6c-4.8-3.6-7.8-10.6-4.6-16.2"/>
</svg>
