<?xml version="1.0" encoding="utf-8"?>
<!-- Generator: Adobe Illustrator 22.1.0, SVG Export Plug-In . SVG Version: 6.00 Build 0)  -->
<svg version="1.1" id="Layer_1" xmlns="http://www.w3.org/2000/svg" xmlns:xlink="http://www.w3.org/1999/xlink" x="0px" y="0px"
	 viewBox="0 0 60 60" style="enable-background:new 0 0 60 60;" xml:space="preserve">
<style type="text/css">
	.st0{fill:#F5DE19;}
</style>
<path class="st0" d="M0,0h60v60H0V0z M55.1,45.7c-0.4-2.7-2.2-5-7.5-7.2c-1.8-0.9-3.9-1.5-4.5-2.8c-0.2-0.8-0.3-1.3-0.1-1.8
	c0.4-1.6,2.3-2.1,3.8-1.7c1,0.3,1.9,1,2.4,2.3c2.6-1.7,2.6-1.7,4.4-2.8c-0.7-1.1-1-1.5-1.5-2c-1.6-1.8-3.7-2.7-7.1-2.6l-1.8,0.2
	c-1.7,0.4-3.3,1.3-4.3,2.5c-2.9,3.2-2,8.9,1.4,11.2c3.4,2.5,8.4,3.1,9,5.5c0.6,2.9-2.2,3.9-4.9,3.5c-2-0.5-3.1-1.5-4.4-3.3l-4.6,2.6
	c0.5,1.2,1.1,1.7,2,2.8c4.4,4.4,15.2,4.2,17.2-2.5c0.1-0.2,0.6-1.8,0.2-4.1L55.1,45.7L55.1,45.7z M32.6,27.6H27c0,4.8,0,9.7,0,14.5
	c0,3.1,0.2,5.9-0.3,6.8c-0.8,1.7-2.9,1.5-3.9,1.2c-1-0.5-1.5-1.2-2.1-2.1c-0.2-0.3-0.3-0.5-0.3-0.5l-4.6,2.8
	c0.8,1.6,1.9,2.9,3.3,3.8c2.1,1.3,5,1.7,8,1c2-0.6,3.6-1.7,4.5-3.5c1.3-2.3,1-5.2,1-8.4c0-5.1,0-10.3,0-15.4L32.6,27.6L32.6,27.6z"
	/>
</svg>
