<?xml version="1.0" encoding="utf-8"?>
<!-- Generator: Adobe Illustrator 22.1.0, SVG Export Plug-In . SVG Version: 6.00 Build 0)  -->
<svg version="1.1" id="Layer_1" xmlns="http://www.w3.org/2000/svg" xmlns:xlink="http://www.w3.org/1999/xlink" x="0px" y="0px"
	 viewBox="0 0 60 60" style="enable-background:new 0 0 60 60;" xml:space="preserve">
<style type="text/css">
	.st0{clip-path:url(#SVGID_2_);}
	.st1{fill:#2F9BFE;}
	.st2{fill:#FEC92E;}
</style>
<g>
	<defs>
		<rect id="SVGID_1_" width="60" height="60"/>
	</defs>
	<clipPath id="SVGID_2_">
		<use xlink:href="#SVGID_1_"  style="overflow:visible;"/>
	</clipPath>
	<g class="st0">
		<path class="st1" d="M35.8,0.4L38,0.9l1.8,0.7l1.5,0.7l1.1,0.8L43.3,4l0.6,0.8l0.4,0.8l0.3,0.8l0.1,0.6l0,0.5l0,0.3v13.4l-0.1,1.6
			l-0.3,1.4l-0.5,1.1l-0.6,0.9l-0.8,0.8l-0.8,0.6l-0.9,0.5l-0.9,0.4l-0.8,0.3L38.2,29L37.5,29L37,29.1H22.1l-1.7,0.1l-1.5,0.4
			l-1.3,0.5l-1,0.7l-0.8,0.8l-0.7,0.9l-0.5,0.9l-0.4,0.9L14,35.2L13.8,36l-0.1,0.7l-0.1,0.5v7.7H8.1l-0.5-0.1l-0.7-0.2l-0.8-0.3
			l-0.9-0.5l-0.9-0.7l-0.9-0.9l-0.9-1.2l-0.8-1.5L1,37.8l-0.5-2.2L0.1,33L0,29.9l0.2-3l0.4-2.6l0.6-2.2L2,20.3l0.9-1.4l1-1.1L4.9,17
			l1-0.6l1-0.4l0.9-0.3l0.8-0.1l0.6,0h0.4l0.2,0h20.4v-2.1H15.6l0-6.9l-0.1-0.9l0.1-0.8l0.3-0.8l0.4-0.7L17,2.8l0.8-0.6l1-0.5
			l1.1-0.4l1.3-0.4l1.4-0.3l1.6-0.3l1.8-0.2l1.9-0.1L29.9,0l3.2,0.1L35.8,0.4L35.8,0.4z M20,5.4l-0.6,0.8l-0.2,1l0.2,1L20,9.1
			l0.8,0.6l1,0.2l1-0.2l0.8-0.6l0.6-0.9l0.2-1l-0.2-1l-0.6-0.8l-0.8-0.6l-1-0.2l-1,0.2L20,5.4z"/>
		<path class="st2" d="M52.8,15.3l0.7,0.2l0.8,0.3l0.9,0.4l0.9,0.7l0.9,0.9l0.9,1.2l0.8,1.5l0.7,1.8l0.5,2.2l0.3,2.6l0.1,3.1
			l-0.1,3.1l-0.4,2.6l-0.6,2.2l-0.8,1.8l-0.9,1.4l-1,1.1l-1,0.8l-1.1,0.6l-1,0.4l-0.9,0.2l-0.8,0.1l-0.6,0l-0.4,0H30.1v2h14.6l0,6.9
			l0.1,0.9l-0.1,0.8l-0.3,0.8L44,56.6l-0.6,0.6l-0.8,0.6l-1,0.5l-1.1,0.4l-1.3,0.4l-1.4,0.3l-1.6,0.2l-1.8,0.2L32.5,60l-2.1,0
			l-3.2-0.1l-2.7-0.4L22.3,59l-1.8-0.6L19,57.7l-1.1-0.8L17,56l-0.6-0.8L16,54.3l-0.3-0.8L15.6,53l-0.1-0.5l0-0.3V38.8l0.1-1.6
			l0.3-1.3l0.5-1.2l0.6-1l0.8-0.8l0.8-0.6l0.9-0.5l0.9-0.4l0.8-0.3l0.8-0.1l0.6-0.1l0.5-0.1l0.3,0h14.6l1.7-0.1l1.5-0.4l1.3-0.5
			l1-0.7l0.8-0.8l0.7-0.9l0.5-0.9l0.4-0.9l0.3-0.9l0.2-0.8l0.1-0.7l0.1-0.5v-7.7h5.2l0.3,0L52.8,15.3L52.8,15.3z M36.6,50.9L36,51.7
			l-0.2,1l0.2,1l0.6,0.8l0.8,0.6l1,0.2l1-0.2l0.8-0.6l0.6-0.8l0.2-1l-0.2-1l-0.6-0.8l-0.8-0.6l-1-0.2l-1,0.2L36.6,50.9z"/>
	</g>
</g>
</svg>
