<?xml version="1.0" encoding="utf-8"?>
<!-- Generator: Adobe Illustrator 22.1.0, SVG Export Plug-In . SVG Version: 6.00 Build 0)  -->
<svg version="1.1" id="Layer_1" xmlns="http://www.w3.org/2000/svg" xmlns:xlink="http://www.w3.org/1999/xlink" x="0px" y="0px"
	 viewBox="0 0 60 60" style="enable-background:new 0 0 60 60;" xml:space="preserve">
<style type="text/css">
	.st0{fill:#61DAFB;}
</style>
<path class="st0" d="M30,35.1c3,0,5.3-2.4,5.3-5.3S33,24.4,30,24.4s-5.3,2.4-5.3,5.3S27,35.1,30,35.1z"/>
<path class="st0" d="M15,40.4l-1.2-0.3C5,37.8,0,34.1,0,29.7s5-8.1,13.8-10.3l1.2-0.3l0.3,1.2c0.9,3.1,2,6.1,3.4,8.9l0.3,0.5
	l-0.3,0.5c-1.4,2.9-2.5,5.9-3.4,8.9L15,40.4z M13.3,22.1C6.6,24,2.5,26.9,2.5,29.7c0,2.9,4.1,5.7,10.8,7.6c0.8-2.6,1.8-5.1,3-7.6
	C15.1,27.2,14.1,24.7,13.3,22.1L13.3,22.1z M45,40.4l-0.3-1.2c-0.9-3.1-2-6.1-3.4-8.9L41,29.7l0.3-0.5c1.4-2.9,2.5-5.9,3.4-8.9
	l0.3-1.2l1.2,0.3C55,21.6,60,25.4,60,29.7s-5,8.1-13.8,10.3L45,40.4L45,40.4z M43.8,29.7c1.2,2.6,2.2,5.2,3,7.6
	c6.7-1.9,10.8-4.8,10.8-7.6c0-2.9-4.1-5.7-10.8-7.6C45.9,24.7,44.9,27.2,43.8,29.7L43.8,29.7z"/>
<path class="st0" d="M13.3,22.1l-0.3-1.2C10.5,12.2,11.2,6,15,3.8c3.7-2.1,9.7,0.4,15.9,6.8l0.9,0.9l-0.9,0.9
	c-2.2,2.3-4.2,4.8-6.1,7.4l-0.3,0.5l-0.6,0.1c-3.2,0.3-6.4,0.8-9.5,1.5L13.3,22.1L13.3,22.1z M18,5.5c-0.7,0-1.3,0.1-1.8,0.4
	c-2.5,1.4-2.9,6.4-1.2,13.1c2.7-0.6,5.4-1,8.1-1.3c1.6-2.2,3.3-4.4,5.1-6.4C24.4,7.7,20.7,5.5,18,5.5L18,5.5z M42,56.4
	C42,56.4,42,56.4,42,56.4c-3.6,0-8.1-2.7-12.9-7.6L28.3,48l0.9-0.9c2.2-2.3,4.2-4.8,6.1-7.4l0.3-0.5l0.6,0c3.2-0.3,6.4-0.8,9.5-1.5
	l1.2-0.3l0.3,1.2c2.5,8.7,1.7,15-2.1,17.1C44.1,56.2,43,56.4,42,56.4L42,56.4z M31.8,48c3.9,3.8,7.6,6,10.2,6h0
	c0.7,0,1.3-0.1,1.8-0.4c2.5-1.4,2.9-6.4,1.2-13.1c-2.7,0.6-5.4,1-8.1,1.3C35.3,43.8,33.6,46,31.8,48L31.8,48z"/>
<path class="st0" d="M46.7,22.1l-1.2-0.3c-3.1-0.8-6.3-1.3-9.5-1.5l-0.6-0.1l-0.3-0.5c-1.8-2.6-3.8-5.1-6.1-7.4l-0.9-0.9l0.9-0.9
	C35.3,4.2,41.3,1.6,45,3.8c3.8,2.2,4.5,8.4,2.1,17.1L46.7,22.1z M36.9,17.8c2.9,0.3,5.6,0.7,8.1,1.3c1.7-6.7,1.3-11.7-1.2-13.1
	c-2.5-1.4-7.1,0.8-12,5.5C33.6,13.5,35.3,15.6,36.9,17.8L36.9,17.8z M18,56.4c-1.1,0-2.1-0.3-3-0.8c-3.8-2.2-4.5-8.4-2.1-17.1
	l0.3-1.2l1.2,0.3c2.9,0.7,6.1,1.2,9.5,1.5l0.6,0l0.3,0.5c1.8,2.6,3.8,5.1,6.1,7.4l0.9,0.9l-0.9,0.9C26.1,53.7,21.6,56.4,18,56.4
	L18,56.4z M15,40.4c-1.7,6.7-1.3,11.7,1.2,13.1c2.5,1.4,7.1-0.8,12-5.5c-1.8-2-3.6-4.1-5.1-6.4C20.4,41.4,17.7,40.9,15,40.4L15,40.4
	z"/>
<path class="st0" d="M30,41.9c-2.1,0-4.2-0.1-6.3-0.3l-0.6,0l-0.3-0.5c-1.2-1.7-2.3-3.5-3.4-5.3c-1-1.8-2-3.7-2.9-5.6l-0.3-0.5
	l0.3-0.5c0.9-1.9,1.9-3.8,2.9-5.6c1-1.8,2.2-3.6,3.4-5.3l0.3-0.5l0.6-0.1c4.2-0.4,8.4-0.4,12.6,0l0.6,0.1l0.3,0.5
	c2.4,3.4,4.5,7.1,6.3,10.9l0.3,0.5l-0.3,0.5c-1.8,3.8-3.9,7.4-6.3,10.9l-0.3,0.5l-0.6,0C34.2,41.8,32.1,41.9,30,41.9L30,41.9z
	 M24.5,39.2c3.7,0.3,7.3,0.3,11,0c2.1-3,3.9-6.2,5.5-9.5c-1.6-3.3-3.4-6.5-5.5-9.5c-3.7-0.3-7.3-0.3-11,0c-2.1,3-3.9,6.2-5.5,9.5
	C20.6,33,22.4,36.2,24.5,39.2L24.5,39.2z"/>
</svg>
