<?xml version="1.0" encoding="utf-8"?>
<!-- Generator: Adobe Illustrator 22.1.0, SVG Export Plug-In . SVG Version: 6.00 Build 0)  -->
<svg version="1.1" id="Layer_1" xmlns="http://www.w3.org/2000/svg" xmlns:xlink="http://www.w3.org/1999/xlink" x="0px" y="0px"
	 viewBox="0 0 60 60" style="enable-background:new 0 0 60 60;" xml:space="preserve">
<style type="text/css">
	.st0{fill:#CE679A;}
</style>
<path class="st0" d="M30,0c16.6,0,30,13.4,30,30S46.6,60,30,60S0,46.6,0,30S13.4,0,30,0z M24,40c0.4,1.6,0.4,3.1-0.1,4.5l-0.2,0.5
	c-0.1,0.2-0.1,0.3-0.2,0.4c-0.4,0.7-0.8,1.4-1.4,2c-1.7,1.9-4.2,2.6-5.2,2c-1.1-0.7-0.6-3.3,1.5-5.5c2.2-2.3,5.3-3.8,5.3-3.8v0
	L24,40L24,40z M48.8,12.8c-1.4-5.3-10.2-7.1-18.6-4.1c-5,1.8-10.4,4.5-14.2,8.2c-4.6,4.3-5.3,8.1-5,9.6c1.1,5.5,8.6,9.1,11.8,11.8v0
	c-0.9,0.5-7.6,3.8-9.2,7.3c-1.7,3.7,0.3,6.3,1.5,6.6c3.9,1.1,8-0.9,10.2-4.1c2.1-3.2,1.9-7.2,1-9.2c1.2-0.3,2.7-0.5,4.6-0.3
	c5.3,0.6,6.3,3.9,6.1,5.3c-0.2,1.3-1.3,2.1-1.7,2.4c-0.4,0.2-0.5,0.3-0.5,0.5c0,0.2,0.2,0.2,0.5,0.2c0.4-0.1,2.7-1.1,2.9-3.7
	c0.1-3.2-3-6.8-8.4-6.8c-2.3,0-3.7,0.2-4.7,0.6c-0.1-0.1-0.2-0.2-0.3-0.3c-3.4-3.6-9.6-6.2-9.4-11c0.1-1.8,0.7-6.4,12-12
	c9.3-4.6,16.7-3.3,17.9-0.5c1.8,4-3.9,11.5-13.6,12.6c-3.7,0.4-5.6-1-6.1-1.5c-0.5-0.6-0.6-0.6-0.8-0.5c-0.3,0.1-0.1,0.6,0,0.9
	c0.3,0.8,1.5,2.1,3.5,2.7c1.8,0.6,6.1,0.9,11.3-1.1c5.8-2.2,10.3-8.5,9-13.8L48.8,12.8L48.8,12.8z"/>
</svg>
