<?xml version="1.0" encoding="utf-8"?>
<!-- Generator: Adobe Illustrator 22.1.0, SVG Export Plug-In . SVG Version: 6.00 Build 0)  -->
<svg version="1.1" id="Layer_1" xmlns="http://www.w3.org/2000/svg" xmlns:xlink="http://www.w3.org/1999/xlink" x="0px" y="0px"
	 viewBox="0 0 60 60" style="enable-background:new 0 0 60 60;" xml:space="preserve">
<style type="text/css">
	.st0{clip-path:url(#SVGID_2_);}
	.st1{fill:#FC3B26;}
</style>
<g>
	<defs>
		<rect id="SVGID_1_" width="60" height="60"/>
	</defs>
	<clipPath id="SVGID_2_">
		<use xlink:href="#SVGID_1_"  style="overflow:visible;"/>
	</clipPath>
	<g class="st0">
		<path class="st1" d="M55,40.9c0.1-0.3,0.1-0.6,0.3-0.8c3.4-13.2-4.6-28.6-18.4-36.7c6,8.1,8.4,17.8,6.3,26.5
			c-0.1,0.7-0.4,1.5-0.7,2.2c-0.4-0.2-0.8-0.4-1.1-0.7c0,0-13.6-8.4-28.2-23.1C12.8,7.8,21,20,30.3,29.7
			c-4.3-2.5-16.7-11.4-24.4-18.5c0.8,1.5,2.1,3.1,3.4,4.6c6.4,8.3,14.9,18.4,25,26.1c-7.2,4.4-17.1,4.6-27.2,0
			c-2.5-1.1-4.6-2.5-7-4.2c4.2,6.6,10.8,12.6,18.6,15.8c9.4,4.1,18.9,3.8,25.8,0h0.1c0.3-0.1,0.6-0.3,0.8-0.6
			c3.4-1.7,10-3.5,13.6,3.5C60,58.4,61.8,49.3,55,40.9L55,40.9z"/>
	</g>
</g>
</svg>
